<?xml version="1.0" standalone="no"?>
<!DOCTYPE svg PUBLIC "-//W3C//DTD SVG 20010904//EN"
 "http://www.w3.org/TR/2001/REC-SVG-20010904/DTD/svg10.dtd">
<svg version="1.0" xmlns="http://www.w3.org/2000/svg"
 width="640.000000pt" height="640.000000pt" viewBox="0 0 640.000000 640.000000"
 preserveAspectRatio="xMidYMid meet">
<metadata>
Created by potrace 1.14, written by Peter Selinger 2001-2017
</metadata>
<g transform="translate(0.000000,640.000000) scale(0.100000,-0.100000)"
fill="#000000" stroke="none">
<path d="M1194 6318 c18 -233 56 -1072 72 -1578 8 -239 9 -235 -82 -231 -39 2
-54 -1 -54 -11 -1 -7 -3 -44 -5 -82 -6 -91 1 -99 76 -90 l59 7 16 -39 c10 -23
21 -105 30 -218 7 -100 14 -183 14 -185 0 -2 26 21 58 51 123 113 328 188 516
188 89 0 140 -14 159 -43 8 -13 34 -29 58 -36 63 -18 143 -66 177 -105 28 -33
92 -178 92 -211 0 -22 7 -19 43 22 40 46 118 83 177 83 40 1 47 5 65 33 22 35
75 54 56 20 -37 -66 -73 -175 -90 -272 -10 -63 -23 -116 -29 -120 -5 -3 -12
-23 -16 -44 -4 -20 -18 -72 -32 -115 -22 -66 -26 -100 -30 -242 -3 -91 -9
-179 -13 -195 -5 -19 -3 -51 6 -85 16 -61 11 -105 -17 -163 -12 -25 -19 -60
-19 -94 1 -84 -15 -96 -144 -104 -56 -3 -127 -13 -157 -22 -81 -22 -130 -29
-130 -18 0 6 -13 6 -35 0 -40 -11 -117 0 -178 26 -60 25 -114 80 -132 136 -17
49 -58 99 -82 99 -6 0 -12 8 -11 18 0 9 -16 55 -37 102 -20 47 -71 168 -112
270 -41 102 -82 196 -89 210 -16 28 -16 30 11 -345 17 -232 29 -426 50 -794 8
-146 20 -281 25 -301 23 -84 81 -104 375 -131 66 -6 122 -12 124 -14 2 -2 -2
-18 -8 -36 -9 -26 -8 -35 4 -49 8 -9 15 -22 15 -29 0 -7 6 -11 13 -8 19 7 57
-11 57 -28 0 -8 7 -15 15 -15 18 0 20 20 3 20 -22 1 25 30 48 30 12 0 28 -9
35 -19 19 -26 124 -39 226 -27 40 4 56 2 68 -10 12 -12 26 -15 61 -9 l45 6 -7
338 c-4 186 -4 350 0 365 5 22 10 25 24 17 15 -9 17 -32 18 -213 1 -356 16
-843 25 -853 5 -5 9 -17 9 -27 0 -10 7 -21 15 -24 20 -8 19 -24 0 -24 -9 0
-27 -12 -40 -26 -24 -26 -25 -33 -25 -160 0 -73 3 -139 6 -148 4 -10 18 -16
40 -16 19 0 34 -4 34 -9 0 -9 38 -24 53 -22 5 1 22 -8 38 -20 26 -18 34 -20
57 -10 21 10 27 10 34 -2 6 -11 22 -14 72 -10 56 5 66 3 86 -17 l22 -22 47 20
c45 18 47 18 71 1 22 -16 36 -17 134 -9 59 5 147 10 195 11 121 2 388 35 486
60 22 6 77 20 123 31 69 17 82 24 76 37 -4 9 -11 72 -15 141 -4 69 -8 126 -8
127 -4 7 -83 23 -164 33 -53 7 -99 16 -102 20 -2 4 34 17 80 30 54 14 83 26
78 33 -4 7 0 8 11 4 9 -4 33 0 52 8 l36 15 -9 162 c-4 90 -8 251 -7 358 0 189
14 555 20 535 2 -5 10 -129 19 -274 9 -145 20 -272 26 -283 9 -17 13 -18 27
-5 28 23 53 29 135 28 42 -1 130 6 195 14 64 8 137 17 162 19 25 2 86 12 135
21 50 9 115 20 145 25 67 10 289 58 300 65 11 7 18 126 30 475 11 344 25 690
45 1130 17 363 32 1088 40 1935 3 325 8 681 11 793 l6 202 -2097 0 -2097 0 6
-82z m2391 -623 c11 -33 25 -63 30 -67 6 -4 27 -8 47 -8 37 0 39 -2 78 -79 24
-48 47 -82 59 -86 26 -8 107 -98 131 -144 10 -20 37 -56 60 -81 55 -59 81
-117 81 -183 3 -244 2 -251 -20 -304 -13 -28 -35 -62 -49 -74 -15 -13 -21 -17
-14 -9 6 8 12 25 12 38 l0 25 -20 -26 c-11 -14 -20 -28 -20 -31 0 -15 -46 -56
-62 -56 -16 0 -18 -9 -18 -80 0 -44 3 -80 6 -80 9 0 48 94 46 112 0 10 3 20 8
23 5 3 7 12 4 20 -3 7 4 18 15 25 18 9 21 8 21 -7 0 -34 -38 -144 -69 -198
-21 -37 -31 -68 -31 -96 0 -105 -72 -206 -163 -230 l-47 -13 0 -76 0 -76 -282
-3 c-156 -2 -319 -4 -363 -5 -57 -1 -80 3 -81 12 -1 6 -2 41 -3 77 -1 59 -3
65 -22 65 -44 0 -116 41 -147 84 -38 53 -51 107 -52 207 0 75 -1 79 -53 162
-30 46 -59 98 -66 115 -7 16 -21 32 -32 35 -26 7 -41 51 -41 123 0 76 9 122
28 132 11 6 14 33 15 109 l1 102 58 35 c53 33 58 39 64 81 4 24 14 48 22 53 7
4 16 29 19 55 14 114 58 177 123 177 46 0 82 24 82 53 0 41 16 51 85 55 64 4
67 6 82 37 12 26 26 36 59 45 54 15 87 8 104 -25 9 -17 22 -25 41 -25 15 0 31
-4 34 -10 4 -6 -5 -10 -21 -10 -25 0 -26 -2 -19 -37 12 -67 20 -69 58 -9 32
51 33 56 10 56 -13 1 -5 12 26 41 43 38 47 40 105 37 l61 -3 20 -60z m232
-1761 c-3 -3 -12 -4 -19 -1 -8 3 -5 6 6 6 11 1 17 -2 13 -5z m124 -34 l12 -40
47 6 c69 9 152 -18 198 -64 21 -21 76 -105 122 -187 154 -274 156 -277 200
-505 22 -112 43 -228 47 -257 l6 -53 -32 -6 c-28 -6 -32 -10 -27 -30 4 -13 9
-44 12 -68 7 -45 22 -62 142 -161 79 -65 111 -183 78 -283 -17 -51 -61 -92
-98 -92 -47 0 -119 139 -127 245 l-6 70 -40 -3 c-119 -10 -185 -139 -127 -247
12 -22 22 -57 22 -77 0 -35 -2 -38 -28 -38 -32 0 -75 41 -111 105 -13 22 -32
46 -42 53 -46 32 -83 157 -60 200 18 34 36 16 38 -38 1 -45 28 -110 44 -110 4
0 12 20 18 44 6 25 26 71 45 103 37 64 39 88 12 161 -9 23 -17 57 -18 75 -3
27 -8 33 -33 37 -29 5 -30 7 -27 50 3 48 -20 196 -37 243 -6 16 -11 39 -11 52
0 21 -35 104 -77 179 -8 16 -26 92 -40 170 -25 150 -31 172 -38 164 -3 -3 -1
-27 4 -54 6 -27 33 -177 61 -334 29 -157 65 -349 81 -427 16 -78 29 -151 29
-163 0 -21 14 -27 25 -10 9 15 25 12 25 -5 0 -20 -40 -41 -50 -25 -7 11 -20
75 -90 450 -38 202 -60 317 -110 587 -31 170 -78 283 -117 283 -19 0 -16 17 5
29 38 22 61 13 73 -29z m-723 -80 c23 -22 42 -42 42 -44 0 -2 -14 -9 -32 -15
-31 -11 -47 -3 -48 22 0 15 -27 6 -47 -15 -31 -34 -50 -78 -58 -131 -4 -26
-13 -47 -19 -47 -18 0 -93 249 -80 263 2 2 48 4 101 5 l98 2 43 -40z m172 33
c0 -12 -64 -103 -72 -103 -5 0 -8 4 -8 8 0 4 -18 28 -40 52 -22 24 -40 46 -40
47 0 2 36 3 80 3 44 0 80 -3 80 -7z m195 -35 c-4 -24 -9 -45 -11 -47 -2 -2
-24 10 -49 28 -50 36 -75 35 -75 -4 0 -19 -8 -28 -37 -40 -21 -9 -49 -26 -62
-38 -36 -32 -22 -2 35 77 l48 66 79 0 79 0 -7 -42z m-305 -98 c0 -5 -2 -10 -4
-10 -3 0 -8 5 -11 10 -3 6 -1 10 4 10 6 0 11 -4 11 -10z m263 -73 c-27 -92
-90 -237 -103 -237 -4 0 -15 21 -25 47 -15 39 -16 54 -7 92 7 25 15 65 18 89
6 39 11 45 53 67 41 21 48 22 63 8 15 -13 15 -19 1 -66z m-376 -7 c2 -14 8
-55 14 -91 11 -60 10 -70 -10 -115 -25 -55 -23 -56 -71 38 -35 68 -37 78 -10
71 18 -5 20 0 20 35 0 52 19 94 39 90 9 -2 17 -14 18 -28z m-1147 -1940 c0 -5
-7 -10 -16 -10 -8 0 -12 5 -9 10 3 6 10 10 16 10 5 0 9 -4 9 -10z m145 -11
c11 -17 2 -18 -19 -3 -17 12 -17 14 -4 14 9 0 20 -5 23 -11z m1236 -351 c8
-222 6 -228 -50 -228 -53 0 -54 2 -49 211 3 107 8 202 12 211 8 18 55 29 70
16 5 -4 12 -98 17 -210z m25 -233 c4 -8 3 -23 0 -32 -6 -15 -8 -15 -16 -3 -13
20 -12 50 0 50 6 0 13 -7 16 -15z"/>
<path d="M3460 5705 c-5 -13 -12 -47 -16 -75 -6 -48 -6 -50 17 -50 14 0 34 -7
46 -15 19 -14 20 -13 20 13 0 15 -2 21 -4 14 -7 -20 -23 -3 -23 24 0 14 4 22
10 19 13 -8 13 9 -2 56 -13 44 -34 51 -48 14z"/>
<path d="M3147 5688 c-8 -18 -16 -50 -20 -70 -5 -34 -3 -37 25 -47 17 -6 39
-11 49 -11 10 0 24 -8 31 -18 21 -30 34 -32 56 -11 12 10 24 19 27 19 20 -1
25 1 25 11 0 6 -8 8 -17 5 -12 -4 -24 4 -38 24 -11 17 -28 30 -37 30 -11 0
-19 11 -23 33 -12 61 -16 67 -41 67 -17 0 -27 -9 -37 -32z"/>
<path d="M2971 5608 c-5 -13 -6 -24 -2 -25 3 -1 25 -7 49 -12 37 -8 42 -7 42
9 0 47 -73 69 -89 28z"/>
<path d="M2864 5532 c-16 -10 -28 -129 -13 -137 15 -10 26 10 38 65 5 25 13
53 16 63 5 12 2 17 -11 17 -11 0 -24 -4 -30 -8z"/>
<path d="M2971 5521 c-13 -10 -21 -23 -17 -30 4 -6 2 -11 -3 -11 -6 0 -11 -4
-11 -10 0 -5 7 -10 15 -10 8 0 15 7 15 15 0 8 11 17 26 21 15 4 24 12 22 22
-4 23 -20 24 -47 3z"/>
<path d="M3165 5530 c-4 -6 -19 -9 -33 -8 -44 3 -53 -9 -29 -37 20 -22 24 -23
42 -9 11 8 30 19 43 24 12 5 22 16 22 25 0 17 -35 21 -45 5z"/>
<path d="M3459 5478 c-31 -59 -164 -172 -146 -124 9 22 -10 39 -43 38 -27 -1
-31 2 -27 19 8 30 -3 22 -15 -12 -10 -29 -11 -29 -29 -13 -11 10 -19 12 -19 6
0 -7 -4 -12 -10 -12 -5 0 -10 7 -10 15 0 9 9 15 24 15 13 0 30 7 37 17 13 15
11 16 -23 9 -30 -5 -38 -4 -38 8 0 13 -6 12 -34 -5 l-35 -20 -16 25 c-29 43
-41 39 -44 -16 -1 -27 -6 -57 -11 -67 -5 -9 -16 -33 -25 -54 -8 -21 -19 -36
-24 -33 -9 6 -51 -82 -51 -108 0 -20 -33 -96 -64 -145 -26 -40 -27 -41 -77
-38 -40 3 -55 9 -69 27 -23 31 -43 19 -29 -18 6 -14 15 -78 20 -142 6 -63 14
-119 20 -124 17 -18 9 -32 -26 -49 -21 -10 -35 -24 -35 -34 0 -10 4 -14 8 -8
4 6 14 11 22 13 12 3 12 1 3 -9 -6 -6 -9 -18 -6 -27 4 -10 2 -13 -5 -8 -23 14
-23 -33 0 -68 13 -20 25 -36 28 -36 13 0 8 84 -7 109 -13 23 -13 24 0 7 15
-17 16 -16 23 20 4 22 15 50 25 63 14 17 19 41 19 85 0 121 30 169 116 185 27
6 73 16 103 24 37 9 68 11 98 6 26 -5 62 -5 86 1 63 14 210 12 259 -4 24 -8
75 -17 113 -21 128 -11 133 -13 160 -55 18 -29 25 -54 26 -92 0 -79 18 -122
51 -126 39 -5 52 45 50 195 0 67 3 125 8 128 18 11 38 -8 59 -58 19 -43 22
-64 18 -122 -6 -102 -48 -174 -87 -150 -13 8 -13 -8 2 -40 18 -41 63 -26 95
32 20 35 43 138 43 191 0 28 9 69 21 96 12 28 18 55 13 68 -4 13 -9 17 -13 9
-15 -24 -131 46 -131 79 0 17 -14 11 -50 -20 -25 -21 -46 -29 -74 -30 -38 0
-38 0 -22 23 85 116 90 126 75 153 -7 15 -23 30 -34 35 -11 4 -33 17 -50 28
-43 30 -55 27 -55 -14 0 -39 1 -39 -34 -25 -21 8 -30 5 -52 -15 -15 -14 -29
-24 -31 -22 -2 2 8 29 22 59 26 56 26 118 1 118 -6 0 -35 -25 -64 -57 l-54
-58 31 60 c36 71 44 127 19 133 -10 2 -22 -6 -29 -20z m-216 -205 c-7 -3 -13
-11 -13 -19 0 -9 -6 -11 -19 -6 -26 9 -26 27 -1 27 10 0 22 4 26 8 4 4 10 4
13 1 3 -4 0 -9 -6 -11z m-48 -43 c18 -8 17 -9 -7 -9 -16 -1 -28 4 -28 9 0 12
8 12 35 0z m74 -37 c-27 -35 -40 -45 -47 -38 -4 4 6 18 21 31 33 28 45 31 26
7z"/>
<path d="M3680 5436 c0 -8 4 -17 9 -20 10 -7 23 19 14 28 -11 11 -23 6 -23 -8z"/>
<path d="M2781 5243 c-33 -49 -35 -68 -23 -172 l7 -55 27 40 c35 52 58 124 58
184 0 43 -3 50 -19 50 -12 0 -31 -18 -50 -47z"/>
<path d="M3440 4791 c-14 -5 -42 -9 -62 -10 -31 -1 -38 -5 -38 -21 0 -31 36
-44 81 -31 62 19 124 16 164 -7 44 -27 48 -7 7 39 -23 26 -37 32 -78 35 -27 2
-60 -1 -74 -5z"/>
<path d="M3018 4774 c-23 -12 -58 -59 -58 -78 0 -3 17 6 38 20 38 27 71 28
178 8 22 -4 36 -1 48 11 23 23 13 30 -65 43 -85 15 -108 15 -141 -4z"/>
<path d="M3417 4678 c-37 -29 -42 -102 -8 -131 31 -28 57 -29 87 -4 71 62 -4
191 -79 135z m58 -28 c8 -24 -1 -40 -21 -40 -20 0 -29 27 -14 45 17 20 27 19
35 -5z"/>
<path d="M3076 4658 c-24 -34 -20 -90 7 -116 29 -27 57 -28 85 -2 29 27 30 92
2 120 -27 27 -75 26 -94 -2z m69 -28 c0 -29 -32 -41 -41 -16 -9 24 4 48 23 44
12 -2 18 -12 18 -28z"/>
<path d="M3472 4348 c-10 -10 -63 -13 -207 -13 -149 0 -191 -3 -183 -12 25
-31 242 -46 340 -24 62 14 99 32 95 45 -5 16 -31 18 -45 4z"/>
<path d="M600 4600 c-8 -5 -34 -10 -56 -10 -26 0 -47 -6 -55 -16 -12 -14 -14
-14 -26 3 -13 16 -34 18 -238 21 l-225 4 0 -94 c0 -82 3 -100 30 -155 16 -35
35 -64 42 -64 80 -9 338 32 338 53 0 4 13 8 29 8 29 0 49 14 34 23 -5 2 -2 2
5 1 17 -5 60 13 78 31 9 8 29 15 45 15 18 0 28 4 24 10 -3 5 6 15 20 22 21 9
31 9 46 0 11 -7 24 -10 29 -7 6 4 10 0 10 -8 0 -8 10 -17 23 -21 36 -10 47 -7
47 12 0 14 2 15 10 2 8 -12 10 -12 16 3 3 10 4 20 1 23 -2 3 -1 21 3 40 6 26
4 36 -7 42 -8 5 -14 12 -14 15 3 22 -2 27 -24 27 -18 0 -23 4 -19 15 4 9 1 15
-7 15 -25 0 -42 -17 -36 -35 4 -9 3 -14 -3 -10 -6 3 -10 15 -10 26 0 14 -5 19
-17 17 -10 -2 -17 -10 -15 -16 3 -17 -15 -15 -22 3 -6 17 -34 19 -56 5z"/>
<path d="M82 3730 c-18 -11 -32 -27 -32 -36 0 -42 46 -186 68 -211 l24 -28 27
32 c14 17 32 52 40 78 7 25 16 44 18 41 3 -2 21 7 40 20 42 28 104 32 124 8
15 -18 71 -13 98 9 28 23 88 35 154 30 41 -4 71 -1 83 6 16 11 16 12 2 7 -10
-3 -18 -1 -18 4 0 6 -47 10 -114 10 -77 0 -116 4 -118 11 -2 7 -32 12 -76 13
-39 0 -72 3 -72 6 0 3 -26 6 -58 8 -31 1 -80 4 -108 7 -38 3 -58 -1 -82 -15z"/>
<path d="M1175 3711 c-3 -5 6 -22 21 -38 16 -17 24 -21 20 -11 -3 10 -1 20 4
23 13 8 13 35 1 35 -5 0 -12 -8 -14 -17 -4 -17 -5 -17 -6 0 -1 18 -16 23 -26
8z"/>
<path d="M765 3690 c-3 -5 1 -10 9 -10 9 0 16 5 16 10 0 6 -4 10 -9 10 -6 0
-13 -4 -16 -10z"/>
<path d="M2065 1510 c3 -5 10 -10 16 -10 5 0 9 5 9 10 0 6 -7 10 -16 10 -8 0
-12 -4 -9 -10z"/>
<path d="M290 665 c-7 -8 -8 -15 -2 -15 5 0 15 7 22 15 7 8 8 15 2 15 -5 0
-15 -7 -22 -15z"/>
<path d="M235 580 c4 -6 1 -17 -5 -25 -17 -20 -5 -19 19 2 22 18 19 33 -5 33
-8 0 -12 -5 -9 -10z"/>
<path d="M397 578 c-18 -15 -34 -68 -20 -68 19 0 41 26 45 53 6 30 0 33 -25
15z"/>
<path d="M173 505 c-7 -8 -13 -19 -13 -25 0 -5 -4 -10 -10 -10 -5 0 -14 -10
-21 -22 -10 -18 -9 -20 5 -15 10 4 15 3 11 -3 -3 -6 -1 -10 4 -10 6 0 11 6 11
14 0 8 11 28 25 44 14 17 25 33 25 36 0 11 -25 5 -37 -9z"/>
<path d="M85 411 c3 -6 -1 -13 -9 -18 -23 -13 -76 -84 -76 -102 1 -12 7 -9 25
12 13 15 27 27 30 27 9 0 41 36 48 53 3 9 11 17 17 17 5 0 10 5 10 10 0 6 -12
10 -26 10 -14 0 -23 -4 -19 -9z"/>
</g>
</svg>
